<svg xmlns="http://www.w3.org/2000/svg" viewBox="0 0 100 100">
  <defs>
    <linearGradient id="grad1" x1="0%" y1="0%" x2="100%" y2="100%">
      <stop offset="0%" style="stop-color:#714B67;stop-opacity:1" />
      <stop offset="100%" style="stop-color:#875A7B;stop-opacity:1" />
    </linearGradient>
  </defs>

  <!-- Background -->
  <rect width="100" height="100" rx="20" fill="url(#grad1)"/>

  <!-- Kafka-style streams -->
  <path d="M20 30 Q35 50 20 70" stroke="white" stroke-width="3" fill="none" opacity="0.6"/>
  <path d="M30 25 Q50 50 30 75" stroke="white" stroke-width="3" fill="none" opacity="0.7"/>
  <path d="M40 20 Q65 50 40 80" stroke="white" stroke-width="3" fill="none" opacity="0.8"/>

  <!-- Arrow (migration direction) -->
  <path d="M55 50 L75 50 M70 45 L75 50 L70 55" stroke="white" stroke-width="4" fill="none" stroke-linecap="round" stroke-linejoin="round"/>

  <!-- Database icon (destination) -->
  <ellipse cx="82" cy="45" rx="8" ry="4" fill="white"/>
  <path d="M74 45 L74 55 Q74 59 82 59 Q90 59 90 55 L90 45" stroke="white" stroke-width="0" fill="white"/>
  <ellipse cx="82" cy="55" rx="8" ry="4" fill="white"/>

  <!-- AI sparkle -->
  <path d="M15 15 L17 20 L22 20 L18 23 L20 28 L15 25 L10 28 L12 23 L8 20 L13 20 Z" fill="#FFD700" opacity="0.9"/>
</svg>
